<?xml version="1.0" encoding="utf-8"?>
<!-- Generator: Adobe Illustrator 24.2.3, SVG Export Plug-In . SVG Version: 6.00 Build 0)  -->
<svg version="1.1" id="Layer_1" xmlns="http://www.w3.org/2000/svg" xmlns:xlink="http://www.w3.org/1999/xlink" x="0px" y="0px"
	 viewBox="0 0 67.7 27.8" style="enable-background:new 0 0 67.7 27.8;" xml:space="preserve">
<style type="text/css">
	.st0{fill:#FFFFFF;}
</style>
<g>
	<path d="M28.1,12.2c0.2-0.2,0.4-0.6,0.5-1c0.2,0,0.4,0.1,0.6,0.1c0.2,0.1,0.3,0.1,0.4,0.2c-0.2,0.5-0.3,1.1-0.3,1.8
		c-0.8,0-1.7,0-2.6,0c-0.5,0-1,0-1.6,0s-1.1,0-1.5,0c0-0.3,0-0.6,0.1-0.8c0.2,0,0.3-0.1,0.4-0.1c0.1-0.1,0.2-0.2,0.2-0.3
		c0-0.2,0.1-0.4,0.1-0.7V8.4c0-0.3,0-0.5-0.1-0.7c0-0.1-0.1-0.2-0.2-0.3c-0.1-0.1-0.2-0.1-0.4-0.1c0-0.2-0.1-0.4-0.1-0.8
		c0.6,0,1.2,0,1.7,0c0.8,0,1.3,0,1.7,0c0,0.2,0,0.3,0,0.5c0,0.1,0,0.2-0.1,0.3c-0.2,0-0.3,0.1-0.4,0.1c-0.1,0.1-0.1,0.2-0.2,0.3
		c0,0.1-0.1,0.4-0.1,0.7v3c0,0.3,0,0.6,0.1,0.7c0,0.2,0.1,0.3,0.2,0.4c0.1,0.1,0.3,0.1,0.5,0.1h0.2C27.7,12.5,27.9,12.4,28.1,12.2z"
		/>
	<path d="M31.7,12.9c-0.5-0.3-0.9-0.7-1.2-1.2c-0.3-0.5-0.4-1.1-0.4-1.8c0-0.7,0.1-1.3,0.4-1.8c0.3-0.5,0.7-0.9,1.2-1.2
		c0.5-0.3,1.1-0.4,1.8-0.4c0.7,0,1.3,0.1,1.8,0.4c0.5,0.3,0.9,0.7,1.2,1.2C36.9,8.5,37,9.1,37,9.7c0,0.7-0.1,1.4-0.4,1.9
		c-0.3,0.6-0.7,1-1.2,1.3c-0.5,0.3-1.1,0.5-1.8,0.5C32.9,13.4,32.2,13.2,31.7,12.9z M34.6,11.9c0.2-0.5,0.3-1.1,0.3-1.9
		c0-0.5-0.1-1-0.2-1.4c-0.1-0.4-0.3-0.8-0.5-1c-0.2-0.2-0.5-0.4-0.8-0.4c-0.4,0-0.7,0.2-0.9,0.6c-0.2,0.4-0.3,1-0.3,1.8
		c0,0.9,0.1,1.6,0.4,2.1c0.3,0.6,0.6,0.8,1.1,0.8C34.1,12.6,34.4,12.4,34.6,11.9z"/>
	<path d="M37.7,12.8c0.1-0.4,0.1-1,0.1-1.7c0.3-0.1,0.7-0.1,1.2-0.1c0,0.4,0.1,0.8,0.2,1c0.1,0.2,0.2,0.4,0.3,0.5
		c0.1,0.1,0.3,0.1,0.6,0.1c0.3,0,0.6-0.1,0.7-0.2s0.2-0.3,0.2-0.5c0-0.2-0.1-0.3-0.3-0.5c-0.2-0.1-0.5-0.3-0.8-0.5
		c-0.4-0.2-0.8-0.4-1.1-0.6c-0.3-0.2-0.5-0.4-0.7-0.7s-0.3-0.7-0.3-1.2c0-0.7,0.2-1.2,0.7-1.6c0.5-0.3,1-0.5,1.8-0.5
		c0.4,0,0.8,0,1.2,0.1c0.4,0.1,0.7,0.2,0.9,0.3c0,0.7,0,1.2,0.1,1.5c-0.1,0.1-0.3,0.1-0.5,0.2c-0.2,0-0.4,0.1-0.6,0.1
		c-0.1-0.5-0.2-0.9-0.4-1.1c-0.2-0.2-0.4-0.3-0.7-0.3c-0.2,0-0.4,0-0.5,0.1c-0.1,0.1-0.2,0.2-0.2,0.4c0,0.2,0.1,0.4,0.3,0.6
		s0.5,0.3,1,0.5c0.5,0.2,0.8,0.4,1.1,0.6c0.3,0.2,0.5,0.4,0.8,0.7s0.3,0.7,0.3,1.1c0,0.7-0.2,1.2-0.7,1.5c-0.5,0.4-1.1,0.5-2,0.5
		C39.3,13.4,38.4,13.2,37.7,12.8z"/>
	<path d="M44.1,7.7c0-0.1-0.1-0.2-0.2-0.3c-0.1-0.1-0.2-0.1-0.4-0.1c-0.1-0.2-0.1-0.5-0.1-0.8c0.3,0,0.9,0,1.8,0c0.7,0,1.3,0,1.7,0
		c0,0.2,0,0.3,0,0.4c0,0.1,0,0.2-0.1,0.3c-0.2,0-0.3,0.1-0.4,0.1c-0.1,0.1-0.1,0.2-0.2,0.3S46.1,8,46.1,8.4v3.1c0,0.3,0,0.5,0.1,0.7
		c0,0.2,0.1,0.3,0.2,0.3c0.1,0.1,0.2,0.1,0.4,0.1c0.1,0.2,0.1,0.5,0.1,0.8c-0.3,0-0.8,0-1.6,0c-0.8,0-1.4,0-1.9,0c0-0.1,0-0.2,0-0.4
		c0-0.2,0-0.3,0.1-0.4c0.2,0,0.3-0.1,0.4-0.1c0.1-0.1,0.1-0.2,0.2-0.3c0-0.1,0.1-0.4,0.1-0.7V8.4C44.1,8,44.1,7.8,44.1,7.7z"/>
	<path d="M54,6.5c0,0.1,0,0.3,0,0.4c0,0.1,0,0.3-0.1,0.4c-0.2,0-0.3,0.1-0.4,0.2c-0.1,0.1-0.1,0.2-0.2,0.4c0,0.2-0.1,0.5-0.1,0.9
		v4.6c-0.1,0-0.3,0.1-0.4,0.1c-0.1,0-0.3,0-0.5,0L49,8.7v2.4c0,0.4,0,0.7,0.1,0.9c0,0.2,0.1,0.3,0.2,0.4c0.1,0.1,0.3,0.1,0.5,0.2
		c0,0.2,0.1,0.4,0.1,0.8c-0.3,0-0.7,0-1.2,0c-0.6,0-1.1,0-1.3,0c0-0.4,0-0.6,0.1-0.8c0.2,0,0.4-0.1,0.5-0.2c0.1-0.1,0.2-0.2,0.2-0.4
		c0.1-0.2,0.1-0.5,0.1-0.9V7.7l-0.1-0.2c-0.1-0.1-0.1-0.2-0.2-0.2c-0.1,0-0.2-0.1-0.5-0.1c-0.1-0.2-0.1-0.5-0.1-0.8
		c0.3,0,0.7,0,1.3,0c0.6,0,1,0,1.1,0l2.8,3.8V8.7c0-0.4,0-0.7-0.1-0.9c0-0.2-0.1-0.3-0.2-0.4c-0.1-0.1-0.3-0.1-0.6-0.2
		c0-0.2-0.1-0.4-0.1-0.8c0.3,0,0.7,0,1.3,0C53.4,6.5,53.8,6.5,54,6.5z"/>
	<path d="M56.3,13c-0.5-0.3-0.9-0.7-1.2-1.2c-0.3-0.5-0.4-1.2-0.4-1.9c0-0.7,0.1-1.3,0.4-1.9c0.3-0.5,0.7-0.9,1.2-1.2
		c0.5-0.3,1.2-0.4,1.9-0.4c0.4,0,0.8,0.1,1.2,0.2c0.4,0.1,0.8,0.2,1.1,0.4c-0.1,0.4-0.1,0.9-0.1,1.6c-0.1,0.1-0.3,0.1-0.4,0.1
		c-0.2,0-0.3,0-0.6,0c0-0.5-0.1-0.9-0.4-1.1c-0.2-0.2-0.5-0.3-0.9-0.3c-0.5,0-0.9,0.2-1.1,0.7c-0.2,0.5-0.4,1-0.4,1.7
		c0,0.6,0.1,1.1,0.2,1.5c0.1,0.5,0.3,0.8,0.6,1.1c0.2,0.3,0.5,0.4,0.9,0.4c0.2,0,0.3,0,0.4,0c0.1,0,0.2-0.1,0.2-0.2
		c0.1-0.1,0.1-0.3,0.1-0.5v-0.3c0-0.2,0-0.4-0.1-0.5c0-0.1-0.1-0.2-0.2-0.2c-0.1,0-0.3-0.1-0.5-0.1c0-0.2-0.1-0.5-0.1-0.8
		c0.3,0,0.7,0,1.4,0c0.7,0,1.2,0,1.4,0c0,0.3,0,0.6-0.1,0.8c-0.2,0-0.3,0.1-0.3,0.1s-0.1,0.2-0.1,0.5v0.2c0,0.3,0,0.4,0,0.6
		c0,0.1,0.1,0.3,0.1,0.5c-0.3,0.2-0.7,0.4-1.2,0.6c-0.5,0.1-0.9,0.2-1.4,0.2C57.5,13.4,56.8,13.2,56.3,13z"/>
	<path d="M25.3,21c-0.5-0.3-0.9-0.7-1.2-1.2c-0.3-0.5-0.4-1.2-0.4-1.9c0-0.7,0.1-1.3,0.4-1.9c0.3-0.5,0.7-0.9,1.2-1.2
		c0.5-0.3,1.2-0.4,1.9-0.4c0.4,0,0.8,0.1,1.2,0.2c0.4,0.1,0.8,0.2,1.1,0.4c-0.1,0.4-0.1,0.9-0.1,1.6c-0.1,0.1-0.3,0.1-0.4,0.1
		c-0.2,0-0.3,0-0.6,0c0-0.5-0.1-0.9-0.4-1.1c-0.2-0.2-0.5-0.3-0.9-0.3c-0.5,0-0.9,0.2-1.1,0.7s-0.4,1-0.4,1.7c0,0.6,0.1,1.1,0.2,1.5
		c0.1,0.5,0.3,0.8,0.6,1.1c0.2,0.3,0.5,0.4,0.9,0.4c0.2,0,0.3,0,0.4,0c0.1,0,0.2-0.1,0.2-0.2c0.1-0.1,0.1-0.3,0.1-0.5v-0.3
		c0-0.2,0-0.4-0.1-0.5c0-0.1-0.1-0.2-0.2-0.2c-0.1,0-0.3-0.1-0.5-0.1c0-0.2-0.1-0.5-0.1-0.8c0.3,0,0.7,0,1.4,0c0.7,0,1.2,0,1.4,0
		c0,0.3,0,0.6-0.1,0.8c-0.2,0-0.3,0.1-0.3,0.1c0,0.1-0.1,0.2-0.1,0.5v0.2c0,0.3,0,0.4,0,0.6c0,0.1,0.1,0.3,0.1,0.5
		c-0.3,0.2-0.7,0.4-1.2,0.6c-0.5,0.1-0.9,0.2-1.4,0.2C26.5,21.4,25.9,21.3,25.3,21z"/>
	<path d="M37.7,21.3c-0.3,0-0.8,0-1.6,0c-0.9,0-1.5,0-1.8,0c0-0.3,0-0.6,0.1-0.8c0.1,0,0.3-0.1,0.3-0.1c0.1-0.1,0.1-0.1,0.1-0.2
		c0-0.1,0-0.2-0.1-0.4l-0.1-0.2c-0.9,0-1.6,0-2.3,0.1l0,0c0,0.1-0.1,0.2-0.1,0.3c0,0.1,0,0.2,0.1,0.3c0.1,0.1,0.2,0.2,0.3,0.2
		c0.1,0.2,0.1,0.5,0.1,0.8c-0.2,0-0.6,0-1.2,0c-0.4,0-0.8,0-1,0c0-0.3,0-0.6,0.1-0.8c0.2,0,0.3-0.1,0.4-0.2s0.2-0.4,0.4-0.8l2.1-5
		c0.1,0,0.2,0,0.4-0.1c0.1,0,0.3,0,0.4,0l2.2,4.9c0.2,0.3,0.3,0.6,0.4,0.8c0.1,0.2,0.2,0.3,0.2,0.3c0.1,0.1,0.2,0.1,0.3,0.1
		C37.7,20.7,37.7,21,37.7,21.3z M34.4,19l-0.4-0.9c-0.2-0.5-0.4-1-0.5-1.4c-0.1,0.4-0.3,0.9-0.5,1.4L32.7,19H34.4z"/>
	<path d="M48.1,21.3c-0.3,0-0.9,0-2,0c-0.5,0-1.1,0-1.5,0c0-0.2,0-0.5,0.1-0.8c0.2,0,0.4-0.1,0.5-0.2c0.1-0.1,0.1-0.2,0.1-0.5
		c0-0.2,0-0.4,0-0.6l-0.3-2.8l-1.9,4.8c-0.2,0.1-0.4,0.1-0.8,0.1l-2.1-4.8l-0.2,2.3c0,0.3-0.1,0.6-0.1,0.8c0,0.4,0.1,0.6,0.2,0.7
		c0.1,0.1,0.3,0.2,0.5,0.2c0.1,0.2,0.1,0.5,0.1,0.8c-0.2,0-0.6,0-1.1,0c-0.4,0-0.9,0-1.3,0c0-0.3,0-0.6,0.1-0.8
		c0.2,0,0.3-0.1,0.4-0.2c0.1-0.1,0.2-0.3,0.3-0.5c0.1-0.2,0.1-0.6,0.2-1l0.2-2.5c0-0.2,0-0.3,0-0.5c0-0.3,0-0.5-0.1-0.6
		c-0.1-0.1-0.3-0.1-0.5-0.1c-0.1-0.2-0.1-0.4-0.1-0.8c0.3,0,0.8,0,1.4,0c0.7,0,1.2,0,1.4,0l1.8,4.3l1.6-4.3c0.4,0,0.8,0,1.4,0
		c0.6,0,1.1,0,1.4,0c0,0.3,0,0.6-0.1,0.8c-0.2,0-0.4,0.1-0.5,0.2c-0.1,0.1-0.2,0.3-0.2,0.6c0,0.1,0,0.3,0,0.4l0.3,2.8
		c0,0.4,0.1,0.7,0.1,0.9c0.1,0.2,0.1,0.3,0.2,0.4c0.1,0.1,0.2,0.1,0.4,0.1C48,20.8,48.1,21,48.1,21.3z"/>
	<path d="M54.4,19.3c0.2,0.1,0.3,0.1,0.4,0.2c-0.2,0.5-0.3,1.1-0.3,1.8c-0.8,0-1.7,0-2.6,0c-0.5,0-1,0-1.6,0c-0.6,0-1.1,0-1.5,0
		c0-0.3,0-0.6,0.1-0.8c0.2,0,0.3-0.1,0.4-0.1c0.1-0.1,0.2-0.2,0.2-0.3c0-0.2,0.1-0.4,0.1-0.7v-3.1c0-0.3,0-0.5-0.1-0.7
		c0-0.1-0.1-0.2-0.2-0.3c-0.1-0.1-0.2-0.1-0.4-0.1c0-0.2-0.1-0.4-0.1-0.8c0.6,0,1.5,0,2.7,0c1.2,0,2.1,0,2.7,0c0,0.3,0,0.6,0.1,0.9
		c0,0.3,0.1,0.6,0.1,0.8c-0.3,0.1-0.7,0.2-1,0.2c-0.1-0.4-0.2-0.7-0.4-0.9c-0.2-0.2-0.5-0.3-1-0.3h-0.5v2.3h0c0.3,0,0.5-0.1,0.6-0.2
		c0.1-0.1,0.2-0.3,0.2-0.6c0.2-0.1,0.5-0.1,0.9-0.1c0,0.4,0,0.8,0,1.2c0,0.4,0,0.8,0,1.2c-0.4,0-0.7,0-0.9-0.1
		c0-0.3-0.1-0.5-0.2-0.5c-0.1-0.1-0.3-0.1-0.6-0.1h0v1.1c0,0.3,0,0.6,0.1,0.7c0,0.2,0.1,0.3,0.2,0.4c0.1,0.1,0.3,0.1,0.5,0.1h0.2
		c0.3,0,0.6-0.1,0.8-0.3c0.2-0.2,0.4-0.6,0.5-1C54,19.2,54.2,19.3,54.4,19.3z"/>
	<path d="M55.5,20.8c0.1-0.4,0.1-1,0.1-1.7c0.3-0.1,0.7-0.1,1.2-0.1c0,0.4,0.1,0.8,0.2,1c0.1,0.2,0.2,0.4,0.3,0.5
		c0.1,0.1,0.3,0.1,0.6,0.1c0.3,0,0.6-0.1,0.7-0.2s0.2-0.3,0.2-0.5c0-0.2-0.1-0.3-0.3-0.5c-0.2-0.1-0.5-0.3-0.8-0.5
		c-0.4-0.2-0.8-0.4-1.1-0.6c-0.3-0.2-0.5-0.4-0.7-0.7s-0.3-0.7-0.3-1.2c0-0.7,0.2-1.2,0.7-1.6c0.5-0.3,1-0.5,1.8-0.5
		c0.4,0,0.8,0,1.2,0.1c0.4,0.1,0.7,0.2,0.9,0.3c0,0.7,0,1.2,0.1,1.5c-0.1,0.1-0.3,0.1-0.5,0.2c-0.2,0-0.4,0.1-0.6,0.1
		c-0.1-0.5-0.2-0.9-0.4-1.1s-0.4-0.3-0.7-0.3c-0.2,0-0.4,0-0.5,0.1c-0.1,0.1-0.2,0.2-0.2,0.4c0,0.2,0.1,0.4,0.3,0.6
		c0.2,0.2,0.5,0.3,1,0.5c0.5,0.2,0.8,0.4,1.1,0.6s0.5,0.4,0.8,0.7c0.2,0.3,0.3,0.7,0.3,1.1c0,0.7-0.2,1.2-0.7,1.5s-1.1,0.5-2,0.5
		C57.1,21.4,56.3,21.2,55.5,20.8z"/>
</g>
<g>
	<g>
		<line class="st0" x1="7.4" y1="7.2" x2="20.7" y2="20.6"/>
		<rect x="13" y="4.5" transform="matrix(0.7071 -0.7071 0.7071 0.7071 -5.7101 14.0006)" width="2.2" height="18.9"/>
	</g>
	<g>
		<line class="st0" x1="7.4" y1="20.6" x2="20.7" y2="7.2"/>
		<rect x="4.6" y="12.8" transform="matrix(0.7071 -0.7071 0.7071 0.7071 -5.7101 14.0006)" width="18.9" height="2.2"/>
	</g>
</g>
</svg>
