<?xml version="1.0" encoding="UTF-8"?><svg id="Layer_1" xmlns="http://www.w3.org/2000/svg" viewBox="0 0 233.28 89.74"><polyline points="28.11 28.18 9.95 28.18 9.95 80.04 220.89 80.04 220.89 28.18 202.8 28.18" style="fill:none; stroke:#231f20; stroke-miterlimit:10; stroke-width:5px;"/><path d="M59.24,9.68l5.3,4.15-.49,23.04,3.97,2.56-7.5,3.88-3.88-3.13.44-22.16-4.77-2.47-.4,21.32,3.4,2.6-6.93,3.84-3.93-3.13.49-22.16-4.81-2.52-.35,21.37,3.22,2.56-6.75,3.88-3.88-3.13.31-23.04-4.72-3.31,7.5-4.15,4.68,3.66,6.62-3.66,5.69,3.58,6.8-3.58Z" style="fill:#231f20;"/><path d="M67.03,22.03l8.3-4.06,5.58,2.68-.35,11.55,3.6,3.04-6.08,2.76-2.61-3.14-4.34,3-4.17-2.83v-4.42l3-1.1-2.93-7.49ZM71.41,29.1l4.1-1.38.11-4.49-4.34-1.27.14,7.13ZM75.51,30.09l-3.85,1.38,3.78,1.98.07-3.36Z" style="fill:#231f20;"/><path d="M95.71,33.65l.11-10.81-2.65-1.77,5.16-2.79,2.9,2.37-.11,12.01,3.04,2.08-4.87,3.07-3.64-2.44-4.77,2.44-4.45-2.75.28-12.22-3.43-1.77,5.86-2.79,2.97,2.37-.28,11.51,3.89,1.48Z" style="fill:#231f20;"/><path d="M105.46,28.64l.04-6.22,7.06-4.56,5.55,2.65-3.07,2.79-4.49-2.05-.04,3.85,6.46,2.15-.07,6.5-7.31,4.1-5.51-2.76,3.64-2.97,4.2,2.22.07-3.57-6.53-2.15Z" style="fill:#231f20;"/><path d="M127,22.74l-.14,10.1,3.46,2.37-6,2.65-2.86-2.37.07-12.33-3.25-1.91,5.51-2.97,3.25,2.72,3.32-2.79,4.52,2.54-3.71,4.13-4.17-2.15Z" style="fill:#231f20;"/><path d="M133.6,21.26l5.51-2.97,3.18,2.58-.28,12.08,3.25,1.8-5.72,3.11-2.93-2.26.28-12.5-3.28-1.84ZM138.94,16.56l-1.52-1.24,5.05-5.47,1.7,1.31-5.23,5.4Z" style="fill:#231f20;"/><path d="M143.81,23.27l3.57-3.6.14-3.67,5.09-1.94-.07,5.65,5.62-.07-2.19,3.43h-3.28l-.14,9.54,4.34,1.94-5.4,3.57-4.34-2.61.25-12.22h-3.57Z" style="fill:#231f20;"/><path d="M157.62,23.27l3.57-3.6.14-3.67,5.09-1.94-.07,5.65,5.62-.07-2.19,3.43h-3.28l-.14,9.54,4.34,1.94-5.4,3.57-4.34-2.61.25-12.22h-3.57Z" style="fill:#231f20;"/><path d="M181.35,18.18l4.94,4.03-.07,3.71-7.95,2.12-.07,3.57,8.02,3.43-7.13,3.14-6.39-3.43.39-12.19,8.26-4.38ZM178.31,25.71l3.36-1.48-3.32-2.61-.04,4.1Z" style="fill:#231f20;"/><path d="M195.83,22.74l-.14,10.1,3.46,2.37-6,2.65-2.86-2.37.07-12.33-3.25-1.91,5.51-2.97,3.25,2.72,3.32-2.79,4.52,2.54-3.71,4.13-4.17-2.15Z" style="fill:#231f20;"/><path d="M29.05,60.64c0,2.01-1.38,3.46-3.64,3.46-1.65,0-2.79-.87-3.62-1.91l1.47-1.58c.73.94,1.51,1.39,2.23,1.39.9,0,1.35-.5,1.35-1.32,0-.69-.43-1.25-1.85-1.97-1.8-.94-2.89-1.85-2.89-3.86,0-1.82,1.35-3.26,3.39-3.26,1.51,0,2.44.61,3.31,1.73l-1.44,1.44c-.71-.8-1.09-1.07-1.92-1.07-.69,0-1.14.45-1.14,1.06,0,.73.42,1.18,1.73,1.89,2.09,1.12,3.01,1.96,3.01,4Z" style="fill:#231f20;"/><path d="M36.59,54.82l-3.46,12.3h-1.89l.92-3.36-2.7-8.94h2.15l.85,3.39c.22.9.57,2.41.66,2.93.09-.52.4-2.06.59-2.91l.76-3.41h2.13Z" style="fill:#231f20;"/><path d="M43.15,61.24c0,1.87-1.25,2.86-2.98,2.86-1.13,0-2.03-.31-2.88-.99l.73-1.75c.76.54,1.45.8,2.18.8.64,0,.95-.29.95-.75,0-.5-.36-.74-1.64-1.37-1.32-.64-1.97-1.4-1.97-2.81,0-1.63,1.18-2.62,2.81-2.62.95,0,1.75.28,2.56.83l-.71,1.66c-.78-.42-1.25-.55-1.91-.55-.47,0-.76.26-.76.62,0,.4.28.66,1.52,1.25,1.33.64,2.1,1.39,2.1,2.81Z" style="fill:#231f20;"/><path d="M49.32,61.73l-.24,1.97c-.45.24-.95.4-1.56.4-1.47,0-2.2-.8-2.2-2.79v-4.55h-1.13v-1.94h1.13v-2.51l2.04-1.02v3.53h1.84v1.94h-1.84v4.5c0,.67.26.9.74.9.4,0,.81-.14,1.21-.43Z" style="fill:#231f20;"/><path d="M57.13,59.37c0,.24-.02.52-.03.76h-4.59c.09,1.4.66,2.03,1.46,2.03.73,0,1.02-.26,1.42-.8l1.46,1.09c-.68,1.11-1.71,1.65-2.91,1.65-2.25,0-3.48-1.92-3.48-4.73,0-3.05,1.38-4.75,3.36-4.75,2.29,0,3.33,2.25,3.33,4.75ZM55.09,58.46c-.1-1.11-.42-1.99-1.3-1.99-.76,0-1.18.66-1.28,1.99h2.58Z" style="fill:#231f20;"/><path d="M68.7,63.91h-2.04v-5.89c0-1.12-.12-1.49-.8-1.49-.43,0-.9.4-1.14.76v6.62h-2.04v-5.89c0-1.12-.12-1.49-.8-1.49-.43,0-.9.4-1.14.76v6.62h-2.04v-9.09h2.04v.62c.45-.49,1.04-.81,1.63-.81,1.11,0,1.66.4,1.99,1,.5-.54,1.11-1,1.99-1,1.94,0,2.36,1.2,2.36,3.33v5.96Z" style="fill:#231f20;"/><path d="M81.8,63.91h-2.36l-1.89-4.61h-.71v4.61h-2.17v-12.12h3.22c2.36,0,3.86,1.26,3.86,3.78,0,1.7-.87,2.75-2.04,3.31l2.08,5.04ZM79.6,55.6c0-1.09-.5-1.7-1.8-1.7h-.95v3.38h1.07c1.11,0,1.68-.57,1.68-1.68Z" style="fill:#231f20;"/><path d="M89.39,59.37c0,.24-.02.52-.03.76h-4.59c.09,1.4.66,2.03,1.46,2.03.73,0,1.02-.26,1.42-.8l1.46,1.09c-.68,1.11-1.71,1.65-2.91,1.65-2.25,0-3.48-1.92-3.48-4.73,0-3.05,1.38-4.75,3.36-4.75,2.29,0,3.33,2.25,3.33,4.75ZM87.35,58.46c-.1-1.11-.42-1.99-1.3-1.99-.76,0-1.18.66-1.28,1.99h2.58Z" style="fill:#231f20;"/><path d="M95.14,53.36c-.26-.12-.52-.17-.92-.17-.57,0-.8.23-.8.88v.74h1.45v1.94h-1.45v7.15h-2.04v-7.15h-.92v-1.94h.92v-1.09c0-1.68.99-2.39,2.22-2.39.71,0,1.14.09,1.54.26v1.77Z" style="fill:#231f20;"/><path d="M102.43,59.37c0,.24-.02.52-.03.76h-4.59c.09,1.4.66,2.03,1.46,2.03.73,0,1.02-.26,1.42-.8l1.46,1.09c-.68,1.11-1.71,1.65-2.91,1.65-2.25,0-3.48-1.92-3.48-4.73,0-3.05,1.38-4.75,3.36-4.75,2.29,0,3.33,2.25,3.33,4.75ZM100.39,58.46c-.1-1.11-.42-1.99-1.3-1.99-.76,0-1.18.66-1.28,1.99h2.58Z" style="fill:#231f20;"/><path d="M109.14,55.1l-.59,1.99c-.35-.28-.71-.45-1.2-.45-.54,0-.97.28-1.32.78v6.49h-2.04v-9.09h2.04v.62c.35-.4.99-.81,1.66-.81.61,0,1,.16,1.44.47Z" style="fill:#231f20;"/><path d="M116.21,59.37c0,.24-.02.52-.03.76h-4.59c.09,1.4.66,2.03,1.46,2.03.73,0,1.02-.26,1.42-.8l1.46,1.09c-.68,1.11-1.71,1.65-2.91,1.65-2.25,0-3.48-1.92-3.48-4.73,0-3.05,1.38-4.75,3.36-4.75,2.29,0,3.33,2.25,3.33,4.75ZM114.16,58.46c-.1-1.11-.42-1.99-1.3-1.99-.76,0-1.18.66-1.28,1.99h2.58Z" style="fill:#231f20;"/><path d="M123.93,63.91h-2.04v-5.89c0-1.12-.14-1.49-.87-1.49-.45,0-.97.4-1.21.76v6.62h-2.04v-9.09h2.04v.62c.45-.49,1.04-.81,1.7-.81,1.94,0,2.42,1.2,2.42,3.33v5.96Z" style="fill:#231f20;"/><path d="M131.71,56.69l-1.65,1.11c-.31-.75-.67-1.23-1.28-1.23-.92,0-1.3,1.09-1.3,2.79s.42,2.81,1.37,2.81c.59,0,1.02-.57,1.32-1.33l1.51,1.09c-.54,1.26-1.44,2.18-2.84,2.18-2.01,0-3.43-1.65-3.43-4.71s1.44-4.76,3.41-4.76c1.4,0,2.34.71,2.89,2.06Z" style="fill:#231f20;"/><path d="M139.33,59.37c0,.24-.02.52-.03.76h-4.59c.09,1.4.66,2.03,1.46,2.03.73,0,1.02-.26,1.42-.8l1.46,1.09c-.68,1.11-1.71,1.65-2.91,1.65-2.25,0-3.48-1.92-3.48-4.73,0-3.05,1.38-4.75,3.36-4.75,2.29,0,3.33,2.25,3.33,4.75ZM137.29,58.46c-.1-1.11-.42-1.99-1.3-1.99-.76,0-1.18.66-1.28,1.99h2.58Z" style="fill:#231f20;"/><path d="M152.41,57.83c0,4.26-1.84,6.08-4.68,6.08h-2.68v-12.12h2.74c2.91,0,4.62,1.78,4.62,6.04ZM150.19,57.87c0-2.23-.47-3.97-2.41-3.97h-.57v7.9h.57c1.94,0,2.41-1.7,2.41-3.93Z" style="fill:#231f20;"/><path d="M160.61,59.36c0,3.07-1.42,4.75-3.45,4.75s-3.45-1.65-3.45-4.71,1.42-4.76,3.46-4.76,3.43,1.66,3.43,4.73ZM158.53,59.39c0-1.68-.42-2.82-1.39-2.82s-1.35,1.09-1.35,2.79.4,2.81,1.39,2.81,1.35-1.25,1.35-2.77Z" style="fill:#231f20;"/><path d="M168.12,56.69l-1.65,1.11c-.31-.75-.67-1.23-1.28-1.23-.92,0-1.3,1.09-1.3,2.79s.42,2.81,1.37,2.81c.59,0,1.02-.57,1.32-1.33l1.51,1.09c-.54,1.26-1.44,2.18-2.84,2.18-2.01,0-3.43-1.65-3.43-4.71s1.44-4.76,3.41-4.76c1.4,0,2.34.71,2.89,2.06Z" style="fill:#231f20;"/><path d="M175.64,63.91h-2.04v-.62c-.45.48-1.04.81-1.7.81-1.94,0-2.42-1.2-2.42-3.33v-5.96h2.04v5.89c0,1.13.14,1.49.87,1.49.45,0,.97-.4,1.21-.76v-6.62h2.04v9.09Z" style="fill:#231f20;"/><path d="M187.56,63.91h-2.04v-5.89c0-1.12-.12-1.49-.8-1.49-.43,0-.9.4-1.14.76v6.62h-2.04v-5.89c0-1.12-.12-1.49-.8-1.49-.43,0-.9.4-1.14.76v6.62h-2.04v-9.09h2.04v.62c.45-.49,1.04-.81,1.63-.81,1.11,0,1.66.4,1.99,1,.5-.54,1.11-1,1.99-1,1.94,0,2.36,1.2,2.36,3.33v5.96Z" style="fill:#231f20;"/><path d="M195.72,59.37c0,.24-.02.52-.03.76h-4.59c.09,1.4.66,2.03,1.46,2.03.73,0,1.02-.26,1.42-.8l1.46,1.09c-.68,1.11-1.71,1.65-2.91,1.65-2.25,0-3.48-1.92-3.48-4.73,0-3.05,1.38-4.75,3.36-4.75,2.29,0,3.33,2.25,3.33,4.75ZM193.68,58.46c-.1-1.11-.42-1.99-1.3-1.99-.76,0-1.18.66-1.28,1.99h2.58Z" style="fill:#231f20;"/><path d="M203.45,63.91h-2.04v-5.89c0-1.12-.14-1.49-.87-1.49-.45,0-.97.4-1.21.76v6.62h-2.04v-9.09h2.04v.62c.45-.49,1.04-.81,1.7-.81,1.94,0,2.42,1.2,2.42,3.33v5.96Z" style="fill:#231f20;"/><path d="M209.88,61.73l-.24,1.97c-.45.24-.95.4-1.56.4-1.47,0-2.2-.8-2.2-2.79v-4.55h-1.13v-1.94h1.13v-2.51l2.04-1.02v3.53h1.84v1.94h-1.84v4.5c0,.67.26.9.74.9.4,0,.81-.14,1.21-.43Z" style="fill:#231f20;"/></svg>