<svg xmlns="http://www.w3.org/2000/svg" viewBox="0 0 90.18 32.09"><path d="M30.35,29.74l2.44,1.92L32.57,42.3l1.83,1.18-3.46,1.8-1.8-1.45.21-10.23-2.21-1.15L27,42.3l1.57,1.2-3.2,1.78-1.81-1.45.22-10.23-2.22-1.17-.16,9.87,1.48,1.18-3.12,1.8-1.79-1.45.14-10.64-2.18-1.53,3.47-1.92,2.16,1.69,3.06-1.69,2.63,1.65Z" transform="translate(-11.2 -13.18)" style="fill:#231f20"/><path d="M33.94,35.45l3.84-1.88,2.57,1.24-.16,5.33,1.66,1.41-2.8,1.27-1.21-1.45-2,1.38-1.92-1.3v-2l1.39-.51Zm2,3.26,1.89-.64,0-2.07-2-.59Zm1.89.46-1.78.63,1.74.92Z" transform="translate(-11.2 -13.18)" style="fill:#231f20"/><path d="M47.19,40.81l.05-5L46,35l2.38-1.29,1.34,1.09,0,5.55,1.4,1-2.25,1.42-1.68-1.13L45,42.74,42.9,41.47,43,35.82,41.44,35l2.71-1.29,1.37,1.09-.13,5.32Z" transform="translate(-11.2 -13.18)" style="fill:#231f20"/><path d="M51.69,38.5V35.63L55,33.52l2.56,1.23L56.11,36,54,35.09l0,1.78,3,1,0,3L53.6,42.75l-2.55-1.27,1.68-1.37,1.94,1,0-1.65Z" transform="translate(-11.2 -13.18)" style="fill:#231f20"/><path d="M61.64,35.77l-.07,4.67,1.6,1.09L60.4,42.75l-1.32-1.09,0-5.69-1.5-.88,2.54-1.37L61.65,35l1.54-1.28,2.08,1.17-1.71,1.91Z" transform="translate(-11.2 -13.18)" style="fill:#231f20"/><path d="M64.69,35.09l2.54-1.37,1.47,1.19-.13,5.58,1.5.83-2.64,1.43-1.36-1,.13-5.77Zm2.46-2.17-.7-.57,2.33-2.53.78.6Z" transform="translate(-11.2 -13.18)" style="fill:#231f20"/><path d="M69.4,36l1.65-1.67.06-1.69,2.35-.9,0,2.61,2.59,0-1,1.58H73.49l-.06,4.4,2,.9-2.49,1.65-2-1.21L71.05,36Z" transform="translate(-11.2 -13.18)" style="fill:#231f20"/><path d="M75.78,36l1.64-1.67.07-1.69,2.35-.9,0,2.61,2.6,0-1,1.58H79.87l-.07,4.4,2,.9-2.5,1.65-2-1.21L77.42,36Z" transform="translate(-11.2 -13.18)" style="fill:#231f20"/><path d="M86.74,33.67,89,35.53l0,1.71-3.67,1,0,1.65L89,41.45l-3.3,1.45-3-1.58.18-5.63Zm-1.41,3.47,1.55-.68-1.53-1.21Z" transform="translate(-11.2 -13.18)" style="fill:#231f20"/><path d="M93.42,35.77l-.06,4.67L95,41.53l-2.78,1.22-1.32-1.09,0-5.69-1.5-.88,2.55-1.37L93.44,35,95,33.69l2.09,1.17-1.71,1.91Z" transform="translate(-11.2 -13.18)" style="fill:#231f20"/><polygon points="90.18 26.95 85.41 26.95 85.41 24.95 88.18 24.95 88.18 2 2 2 2 24.95 4.74 24.95 4.74 26.95 0 26.95 0 0 90.18 0 90.18 26.95" style="fill:#231f20"/><path d="M33.55,24.43c-.18.84-.57,1.41-1.49,1.41-1.21,0-1.65-1.28-1.65-2.88s.49-2.89,1.68-2.89c.93,0,1.31.57,1.45,1.37l-.79.2c-.1-.51-.26-.78-.69-.78-.68,0-.84,1.11-.84,2.09s.22,2.1.9,2.1c.37,0,.55-.25.7-.85Z" transform="translate(-11.2 -13.18)" style="fill:#231f20"/><path d="M37.52,23.64c0,1.48-.6,2.2-1.53,2.2s-1.49-.69-1.49-2.16.59-2.21,1.52-2.21S37.52,22.18,37.52,23.64Zm-.77,0c0-.95-.26-1.45-.74-1.45s-.73.49-.73,1.45.25,1.45.73,1.45S36.75,24.53,36.75,23.66Z" transform="translate(-11.2 -13.18)" style="fill:#231f20"/><path d="M43.12,25.76h-.76V23.17c0-.69-.06-1-.44-1a.74.74,0,0,0-.63.38v3.18h-.77V23.17c0-.69-.05-1-.44-1a.74.74,0,0,0-.62.38v3.18h-.77v-4.2h.77v.29a1,1,0,0,1,.78-.38.86.86,0,0,1,.85.45,1.21,1.21,0,0,1,1-.45c.84,0,1,.54,1,1.65Z" transform="translate(-11.2 -13.18)" style="fill:#231f20"/><path d="M47.23,23.7c0,1.4-.49,2.14-1.32,2.14a.93.93,0,0,1-.73-.31V26.9l-.77.4V21.56h.77v.28a1,1,0,0,1,.79-.37C46.73,21.47,47.23,22,47.23,23.7Zm-.78,0c0-1.09-.2-1.55-.64-1.55a.77.77,0,0,0-.63.38v2.18a.82.82,0,0,0,.67.37C46.25,25.12,46.45,24.73,46.45,23.74Z" transform="translate(-11.2 -13.18)" style="fill:#231f20"/><path d="M51,25.76H50.2v-.29a1.07,1.07,0,0,1-.87.37c-.61,0-1.14-.46-1.14-1.4a1.26,1.26,0,0,1,1.37-1.38,1.51,1.51,0,0,1,.64.14v-.41c0-.41-.14-.6-.55-.6a1.53,1.53,0,0,0-.82.26l-.33-.58a2.23,2.23,0,0,1,1.21-.4c.9,0,1.25.32,1.25,1.26Zm-.76-1v-.84a1.05,1.05,0,0,0-.64-.16c-.35,0-.6.2-.6.66s.2.73.52.73A.81.81,0,0,0,50.2,24.76Z" transform="translate(-11.2 -13.18)" style="fill:#231f20"/><path d="M54,24.94l-.09.71a1.19,1.19,0,0,1-.68.19c-.56,0-.81-.39-.81-1.07V22.28H52v-.72h.46V20.33l.77-.4v1.63H54v.72h-.8V24.7c0,.3.11.42.31.42A.75.75,0,0,0,54,24.94Z" transform="translate(-11.2 -13.18)" style="fill:#231f20"/><path d="M56.12,20.43a.48.48,0,1,1-.47-.48A.48.48,0,0,1,56.12,20.43ZM56,25.76h-.77v-4.2H56Z" transform="translate(-11.2 -13.18)" style="fill:#231f20"/><path d="M60.2,23.7c0,1.4-.49,2.14-1.32,2.14a.93.93,0,0,1-.73-.31v.23h-.77V20.33l.77-.4v1.91a1,1,0,0,1,.78-.37C59.69,21.47,60.2,22,60.2,23.7Zm-.78,0c0-1.09-.21-1.55-.65-1.55a.75.75,0,0,0-.62.38v2.18a.8.8,0,0,0,.66.37C59.21,25.12,59.42,24.73,59.42,23.74Z" transform="translate(-11.2 -13.18)" style="fill:#231f20"/><path d="M62.17,25.76h-.76V20.33l.76-.4Z" transform="translate(-11.2 -13.18)" style="fill:#231f20"/><path d="M66.35,23.64v.28h-2.2c0,.83.34,1.19.79,1.19a1,1,0,0,0,.76-.31l.47.48a1.66,1.66,0,0,1-1.25.56c-1,0-1.54-.84-1.54-2.16s.61-2.21,1.5-2.21S66.35,22.18,66.35,23.64Zm-.78-.39c0-.62-.28-1.06-.71-1.06s-.64.34-.7,1.06Z" transform="translate(-11.2 -13.18)" style="fill:#231f20"/><path d="M73.81,21.56,73,25.76h-.72l-.43-2c-.06-.26-.16-.83-.2-1,0,.2-.13.78-.19,1.06l-.42,2h-.72l-.85-4.2h.74l.31,1.79c0,.25.16,1,.18,1.22,0-.21.18-1,.23-1.24l.39-1.77H72l.4,1.77c.06.24.21,1,.24,1.24,0-.2.14-1,.18-1.22l.29-1.79Z" transform="translate(-11.2 -13.18)" style="fill:#231f20"/><path d="M75.76,20.43a.48.48,0,0,1-1,0,.48.48,0,1,1,1,0Zm-.09,5.33H74.9v-4.2h.77Z" transform="translate(-11.2 -13.18)" style="fill:#231f20"/><path d="M78.77,24.94l-.09.71a1.19,1.19,0,0,1-.68.19c-.56,0-.81-.39-.81-1.07V22.28h-.46v-.72h.46V20.33l.77-.4v1.63h.8v.72H78V24.7c0,.3.11.42.31.42A.75.75,0,0,0,78.77,24.94Z" transform="translate(-11.2 -13.18)" style="fill:#231f20"/><path d="M82.65,25.76h-.77V23.17c0-.69-.13-1-.52-1a.72.72,0,0,0-.62.38v3.18H80V20.33l.77-.4v1.92a1,1,0,0,1,.81-.38c.81,0,1.1.52,1.1,1.57Z" transform="translate(-11.2 -13.18)" style="fill:#231f20"/></svg>