<?xml version="1.0" encoding="utf-8"?>
<!-- Generator: Adobe Illustrator 24.2.3, SVG Export Plug-In . SVG Version: 6.00 Build 0)  -->
<svg version="1.1" id="Layer_1" xmlns="http://www.w3.org/2000/svg" xmlns:xlink="http://www.w3.org/1999/xlink" x="0px" y="0px"
	 viewBox="0 0 260.9 78.2" style="enable-background:new 0 0 260.9 78.2;" xml:space="preserve">
<g>
	<path d="M48.4,14.7l7.7,6l-0.7,33.4l5.8,3.7l-10.9,5.6l-5.6-4.5l0.6-32.1l-6.9-3.6l-0.6,30.9l4.9,3.8l-10.1,5.6l-5.7-4.5l0.7-32.1
		l-7-3.6l-0.5,31l4.7,3.7L15,63.5l-5.6-4.5l0.4-33.4L3,20.7l10.9-6l6.8,5.3l9.6-5.3l8.3,5.2L48.4,14.7z"/>
</g>
<g>
	<path d="M59.7,32.6l12-5.9l8.1,3.9l-0.5,16.7l5.2,4.4l-8.8,4l-3.8-4.6l-6.3,4.4l-6-4.1v-6.4l4.4-1.6L59.7,32.6z M66,42.9l5.9-2
		l0.2-6.5l-6.3-1.8L66,42.9z M72,44.3l-5.6,2l5.5,2.9L72,44.3z"/>
	<path d="M101.3,49.5l0.2-15.7l-3.8-2.6l7.5-4l4.2,3.4L109.1,48l4.4,3l-7.1,4.5l-5.3-3.5l-6.9,3.5l-6.5-4l0.4-17.7l-5-2.6l8.5-4
		l4.3,3.4l-0.4,16.7L101.3,49.5z"/>
	<path d="M115.4,42.2l0.1-9l10.2-6.6l8,3.8l-4.5,4l-6.5-3l-0.1,5.6l9.4,3.1l-0.1,9.4l-10.6,5.9l-8-4l5.3-4.3l6.1,3.2l0.1-5.2
		L115.4,42.2z"/>
	<path d="M146.7,33.6l-0.2,14.6l5,3.4l-8.7,3.8l-4.1-3.4l0.1-17.9l-4.7-2.8l8-4.3l4.7,3.9l4.8-4l6.6,3.7l-5.4,6L146.7,33.6z"/>
	<path d="M156.2,31.5l8-4.3l4.6,3.7l-0.4,17.5l4.7,2.6l-8.3,4.5l-4.3-3.3l0.4-18.1L156.2,31.5z M164,24.7l-2.2-1.8l7.3-7.9l2.5,1.9
		L164,24.7z"/>
	<path d="M171,34.4l5.2-5.2l0.2-5.3l7.4-2.8l-0.1,8.2l8.1-0.1l-3.2,5h-4.8l-0.2,13.8l6.3,2.8l-7.8,5.2l-6.3-3.8l0.4-17.7H171z"/>
	<path d="M191.1,34.4l5.2-5.2l0.2-5.3l7.4-2.8l-0.1,8.2l8.1-0.1l-3.2,5h-4.8l-0.2,13.8l6.3,2.8l-7.8,5.2l-6.3-3.8l0.4-17.7H191.1z"
		/>
	<path d="M225.5,27l7.2,5.8l-0.1,5.4L221,41.3l-0.1,5.2l11.6,5L222.2,56l-9.3-5l0.6-17.7L225.5,27z M221.1,37.9l4.9-2.2l-4.8-3.8
		L221.1,37.9z"/>
	<path d="M246.5,33.6l-0.2,14.6l5,3.4l-8.7,3.8l-4.1-3.4l0.1-17.9l-4.7-2.8l8-4.3l4.7,3.9l4.8-4l6.6,3.7l-5.4,6L246.5,33.6z"/>
</g>
</svg>
